<svg width="11.616943" height="11.616943" viewBox="0 0 11.6169 11.6169" fill="none" xmlns="http://www.w3.org/2000/svg" xmlns:xlink="http://www.w3.org/1999/xlink">
	<desc>
			Created with Pixso.
	</desc>
	<defs/>
	<path id="Vector" d="M11.3293 2.36328C11.486 2.36328 11.6141 2.23511 11.6169 2.07861L11.6169 0.287598C11.6169 0.128174 11.4888 0 11.3293 0L9.53845 0C9.38184 0 9.25366 0.128174 9.25366 0.287598L9.25366 0.911133L2.36328 0.911133L2.36328 0.287598C2.36328 0.130859 2.23511 0.00292969 2.07849 0L0.287598 0C0.130981 0 0.00280762 0.128174 0 0.287598L0 2.07861C0 2.23511 0.128174 2.36328 0.287598 2.36328L0.911133 2.36328L0.911133 9.25366L0.287598 9.25366C0.130981 9.25366 0.00280762 9.38184 0 9.53833L0 11.3293C0 11.4858 0.128174 11.614 0.287598 11.6169L2.07849 11.6169C2.23511 11.6169 2.36328 11.4888 2.36328 11.3293L2.36328 10.7058L9.25366 10.7058L9.25366 11.3293C9.25366 11.4858 9.38184 11.614 9.53845 11.6169L11.3293 11.6169C11.486 11.6169 11.6141 11.4888 11.6169 11.3293L11.6169 9.53833C11.6169 9.38184 11.4888 9.25366 11.3293 9.25366L10.7058 9.25366L10.7058 2.36328L11.3293 2.36328ZM0.569458 1.7937L0.569458 0.569336L1.79382 0.569336L1.79382 1.7937L0.569458 1.7937ZM1.79382 11.0474L0.569458 11.0474L0.569458 9.82324L1.79382 9.82324L1.79382 11.0474ZM9.25366 9.53833L9.25366 10.1362L2.36328 10.1362L2.36328 9.53833C2.36328 9.38184 2.23511 9.25366 2.07849 9.25366L1.48059 9.25366L1.48059 2.36328L2.07849 2.36328C2.23511 2.36328 2.36328 2.23511 2.36328 2.07861L2.36328 1.48047L9.25366 1.48047L9.25366 2.07861C9.25366 2.23511 9.38184 2.36328 9.53845 2.36328L10.1364 2.36328L10.1364 9.25366L9.53845 9.25366C9.38184 9.25366 9.25366 9.38184 9.25366 9.53833ZM11.0475 9.82324L11.0475 11.0474L9.82312 11.0474L9.82312 9.82324L11.0475 9.82324ZM9.82312 1.7937L9.82312 0.569336L11.0475 0.569336L11.0475 1.7937L9.82312 1.7937Z" fill-rule="nonzero" fill="#96C12A"/>
</svg>
