<svg width="13.000000" height="13.000000" viewBox="0 0 13 13" fill="none" xmlns="http://www.w3.org/2000/svg" xmlns:xlink="http://www.w3.org/1999/xlink">
	<desc>
			Created with Pixso.
	</desc>
	<defs>
		<clipPath id="clip273_613">
			<rect id="user (2) 1" width="13.000000" height="13.000000" fill="white"/>
		</clipPath>
	</defs>
	<g clip-path="url(#clip273_613)">
		<path id="Vector" d="M6.13867 6.5C7.03162 6.5 7.80469 6.17969 8.43665 5.54785C9.06836 4.91602 9.38867 4.14307 9.38867 3.25C9.38867 2.35718 9.06836 1.58398 8.43652 0.951904C7.80469 0.320312 7.03149 0 6.13867 0C5.24561 0 4.47266 0.320312 3.84082 0.952148C3.20898 1.58398 2.88867 2.35693 2.88867 3.25C2.88867 4.14307 3.20898 4.91602 3.84082 5.54785C4.47278 6.17969 5.24597 6.5 6.13867 6.5ZM4.40002 1.51123C4.88477 1.02637 5.45349 0.790771 6.13867 0.790771C6.82373 0.790771 7.39258 1.02637 7.87744 1.51123C8.36218 1.99609 8.5979 2.56494 8.5979 3.25C8.5979 3.93506 8.36218 4.50391 7.87744 4.98877C7.39258 5.47363 6.82373 5.70923 6.13867 5.70923C5.45361 5.70923 4.88501 5.47339 4.40002 4.98877C3.91516 4.50391 3.67944 3.93506 3.67944 3.25C3.67944 2.56494 3.91516 1.99609 4.40002 1.51123Z" fill-rule="nonzero" fill="#96C12A"/>
		<path id="Vector" d="M11.5293 10.095C11.5117 9.84985 11.4762 9.58276 11.4241 9.30054C11.3713 9.01611 11.3035 8.74731 11.2223 8.50171C11.1382 8.2478 11.0242 7.99707 10.8831 7.75659C10.7367 7.50732 10.5647 7.29004 10.3717 7.11133C10.1699 6.92432 9.92285 6.77417 9.63721 6.66431C9.35242 6.55542 9.03699 6.5 8.69946 6.5C8.56689 6.5 8.43872 6.55273 8.19104 6.70874C8.0387 6.80493 7.86047 6.91626 7.66162 7.03931C7.49146 7.14429 7.26111 7.24268 6.97644 7.33179C6.69873 7.4187 6.41687 7.46289 6.13843 7.46289C5.86023 7.46289 5.57837 7.4187 5.30042 7.33179C5.01611 7.24268 4.78564 7.14453 4.61584 7.03955C4.4187 6.91748 4.24048 6.8064 4.08582 6.70874C3.83838 6.55273 3.71021 6.5 3.57764 6.5C3.23999 6.5 2.92456 6.55542 2.64001 6.66455C2.35449 6.77393 2.1073 6.92432 1.90527 7.11133C1.71228 7.29028 1.54041 7.50732 1.39417 7.75659C1.25317 7.99707 1.13904 8.24756 1.05505 8.50171C0.973877 8.74731 0.906006 9.01611 0.853271 9.30054C0.801025 9.58228 0.765625 9.84961 0.748169 10.0952C0.730835 10.3352 0.722168 10.5852 0.722168 10.8376C0.722168 11.4941 0.937622 12.0254 1.36255 12.4172C1.78223 12.804 2.3374 13 3.0127 13L9.26501 13C9.94006 13 10.4952 12.804 10.915 12.4172C11.3401 12.0256 11.5555 11.4941 11.5555 10.8376C11.5554 10.5842 11.5466 10.3342 11.5293 10.095ZM10.3904 11.8833C10.113 12.1389 9.745 12.2632 9.26489 12.2632L3.0127 12.2632C2.53247 12.2632 2.16443 12.1389 1.88721 11.8835C1.61523 11.6328 1.48315 11.2908 1.48315 10.8376C1.48315 10.6021 1.49109 10.3694 1.5072 10.1462C1.52283 9.927 1.55481 9.68628 1.60229 9.43066C1.64917 9.17798 1.70874 8.94092 1.77966 8.72632C1.84778 8.52075 1.94055 8.31689 2.05566 8.12061C2.16553 7.93359 2.29199 7.77295 2.43152 7.6438C2.56189 7.52271 2.72644 7.42383 2.92017 7.34961C3.09937 7.28076 3.30078 7.24316 3.51941 7.23755C3.54602 7.25122 3.59351 7.27759 3.67041 7.32593C3.82678 7.4248 4.00708 7.53735 4.20642 7.66064C4.43115 7.79932 4.72058 7.92456 5.06641 8.03271C5.42004 8.14355 5.78064 8.19971 6.13855 8.19971C6.49646 8.19971 6.85718 8.14355 7.21057 8.03271C7.55664 7.92456 7.84607 7.79932 8.07104 7.6604C8.27502 7.53418 8.45032 7.4248 8.60669 7.32593C8.68359 7.27759 8.73096 7.25122 8.75769 7.23755C8.97644 7.24316 9.17786 7.28076 9.35706 7.34961C9.55078 7.42383 9.71521 7.52295 9.8457 7.6438C9.98523 7.77295 10.1116 7.93335 10.2214 8.12061C10.3367 8.31689 10.4296 8.52075 10.4976 8.72632C10.5686 8.94116 10.6283 9.17822 10.675 9.43042C10.7224 9.68677 10.7545 9.92749 10.7701 10.1462L10.7701 10.1465C10.7864 10.3689 10.7944 10.6013 10.7946 10.8376C10.7944 11.2908 10.6624 11.6328 10.3904 11.8833Z" fill-rule="nonzero" fill="#96C12A"/>
	</g>
</svg>
